HIERARCHY
ROOT Hips
{
	OFFSET 0.000000 35.082581 0.000000
	CHANNELS 6 Xposition Yposition Zposition Xrotation Yrotation Zrotation 
	JOINT Spine
	{
		OFFSET 0.000000 6.876099 0.125700
		CHANNELS 3 Xrotation Yrotation Zrotation
		JOINT Spine1
		{
			OFFSET 0.000000 5.730043 0.104720
			CHANNELS 3 Xrotation Yrotation Zrotation
			JOINT Spine1_split
			{
				OFFSET 0.000000 5.730043 0.104720
				CHANNELS 3 Xrotation Yrotation Zrotation
				JOINT Spine2
				{
					OFFSET 0.000000 5.730043 0.104720
					CHANNELS 3 Xrotation Yrotation Zrotation
					JOINT Neck
					{
						OFFSET 0.000000 10.314075 0.188496
						CHANNELS 3 Xrotation Yrotation Zrotation
						JOINT Head
						{
							OFFSET 0.000000 7.643700 -2.377400
							CHANNELS 3 Xrotation Yrotation Zrotation
							JOINT HeadTop_End
							{
								OFFSET 0.000000 43.788605 -13.619600
								CHANNELS 3 Xrotation Yrotation Zrotation
								End Site
								{
									OFFSET 0.000000 0.000000 0.000000
								}
							}
						}
					}
					JOINT LeftShoulder
					{
						OFFSET 2.196100 4.412489 0.087492
						CHANNELS 3 Xrotation Yrotation Zrotation
						JOINT LeftShoulder_split
						{
							OFFSET 2.196100 4.412489 0.087492
							CHANNELS 3 Xrotation Yrotation Zrotation
							JOINT LeftArm
							{
								OFFSET 8.771219 -2.981674 -0.026999
								CHANNELS 3 Xrotation Yrotation Zrotation
								JOINT LeftForeArm
								{
									OFFSET 8.512804 0.000000 -0.000000
									CHANNELS 3 Xrotation Yrotation Zrotation
									JOINT LeftHand
									{
										OFFSET 18.484802 0.000000 -0.000000
										CHANNELS 3 Xrotation Yrotation Zrotation
										JOINT LeftHandThumb1
										{
											OFFSET 2.499420 -1.158070 2.653252
											CHANNELS 3 Xrotation Yrotation Zrotation
											JOINT LeftHandThumb2
											{
												OFFSET 2.370079 -1.368366 1.368366
												CHANNELS 3 Xrotation Yrotation Zrotation
												JOINT LeftHandThumb3
												{
													OFFSET 2.676727 -1.545410 1.545409
													CHANNELS 3 Xrotation Yrotation Zrotation
													JOINT LeftHandThumb4
													{
														OFFSET 1.692226 -0.977005 0.977007
														CHANNELS 3 Xrotation Yrotation Zrotation
														End Site
														{
															OFFSET 0.000000 0.000000 0.000000
														}
													}
												}
											}
										}
										JOINT LeftHandIndex1
										{
											OFFSET 7.924831 -0.457527 2.345128
											CHANNELS 3 Xrotation Yrotation Zrotation
											JOINT LeftHandIndex2
											{
												OFFSET 3.643303 0.000000 0.000000
												CHANNELS 3 Xrotation Yrotation Zrotation
												JOINT LeftHandIndex3
												{
													OFFSET 3.810799 0.000000 0.000000
													CHANNELS 3 Xrotation Yrotation Zrotation
													JOINT LeftHandIndex4
													{
														OFFSET 2.403702 0.000000 0.000000
														CHANNELS 3 Xrotation Yrotation Zrotation
														End Site
														{
															OFFSET 0.000000 0.000000 0.000000
														}
													}
												}
											}
										}
										JOINT LeftHandMiddle1
										{
											OFFSET 8.563995 0.000000 -0.000000
											CHANNELS 3 Xrotation Yrotation Zrotation
											JOINT LeftHandMiddle2
											{
												OFFSET 3.861618 0.000000 0.000000
												CHANNELS 3 Xrotation Yrotation Zrotation
												JOINT LeftHandMiddle3
												{
													OFFSET 3.701603 0.000000 0.000000
													CHANNELS 3 Xrotation Yrotation Zrotation
													JOINT LeftHandMiddle4
													{
														OFFSET 2.322544 0.000000 0.000000
														CHANNELS 3 Xrotation Yrotation Zrotation
														End Site
														{
															OFFSET 0.000000 0.000000 0.000000
														}
													}
												}
											}
										}
										JOINT LeftHandRing1
										{
											OFFSET 8.426460 -0.424637 -3.286992
											CHANNELS 3 Xrotation Yrotation Zrotation
											JOINT LeftHandRing2
											{
												OFFSET 3.126408 0.000000 0.000000
												CHANNELS 3 Xrotation Yrotation Zrotation
												JOINT LeftHandRing3
												{
													OFFSET 3.085026 0.000000 0.000000
													CHANNELS 3 Xrotation Yrotation Zrotation
													JOINT LeftHandRing4
													{
														OFFSET 1.644005 0.000000 0.000000
														CHANNELS 3 Xrotation Yrotation Zrotation
														End Site
														{
															OFFSET 0.000000 0.000000 0.000000
														}
													}
												}
											}
										}
									}
								}
							}
						}
					}
					JOINT RightShoulder
					{
						OFFSET -2.196100 4.412496 0.070690
						CHANNELS 3 Xrotation Yrotation Zrotation
						JOINT RightShoulder_split
						{
							OFFSET -2.196100 4.412496 0.070690
							CHANNELS 3 Xrotation Yrotation Zrotation
							JOINT RightArm
							{
								OFFSET -8.771282 -2.981682 -0.094208
								CHANNELS 3 Xrotation Yrotation Zrotation
								JOINT RightForeArm
								{
									OFFSET -8.494598 0.000000 0.000000
									CHANNELS 3 Xrotation Yrotation Zrotation
									JOINT RightHand
									{
										OFFSET -18.483803 0.000000 0.000001
										CHANNELS 3 Xrotation Yrotation Zrotation
										JOINT RightHandThumb1
										{
											OFFSET -2.527351 -1.008072 2.575253
											CHANNELS 3 Xrotation Yrotation Zrotation
											JOINT RightHandThumb2
											{
												OFFSET -2.321518 -1.340328 1.340329
												CHANNELS 3 Xrotation Yrotation Zrotation
												JOINT RightHandThumb3
												{
													OFFSET -2.657753 -1.534454 1.534455
													CHANNELS 3 Xrotation Yrotation Zrotation
													JOINT RightHandThumb4
													{
														OFFSET -1.807510 -1.043568 1.043567
														CHANNELS 3 Xrotation Yrotation Zrotation
														End Site
														{
															OFFSET 0.000000 0.000000 0.000000
														}
													}
												}
											}
										}
										JOINT RightHandIndex1
										{
											OFFSET -8.811420 0.015533 2.887987
											CHANNELS 3 Xrotation Yrotation Zrotation
											JOINT RightHandIndex2
											{
												OFFSET -3.537502 0.000000 0.000000
												CHANNELS 3 Xrotation Yrotation Zrotation
												JOINT RightHandIndex3
												{
													OFFSET -3.356201 0.000000 0.000000
													CHANNELS 3 Xrotation Yrotation Zrotation
													JOINT RightHandIndex4
													{
														OFFSET -1.933098 0.000000 0.000000
														CHANNELS 3 Xrotation Yrotation Zrotation
														End Site
														{
															OFFSET 0.000000 0.000000 0.000000
														}
													}
												}
											}
										}
										JOINT RightHandMiddle1
										{
											OFFSET -8.178135 0.000000 0.000000
											CHANNELS 3 Xrotation Yrotation Zrotation
											JOINT RightHandMiddle2
											{
												OFFSET -3.901302 0.000000 0.000000
												CHANNELS 3 Xrotation Yrotation Zrotation
												JOINT RightHandMiddle3
												{
													OFFSET -3.909599 0.000000 0.000000
													CHANNELS 3 Xrotation Yrotation Zrotation
													JOINT RightHandMiddle4
													{
														OFFSET -2.376003 0.000000 0.000000
														CHANNELS 3 Xrotation Yrotation Zrotation
														End Site
														{
															OFFSET 0.000000 0.000000 0.000000
														}
													}
												}
											}
										}
										JOINT RightHandRing1
										{
											OFFSET -7.559013 0.014137 -2.865403
											CHANNELS 3 Xrotation Yrotation Zrotation
											JOINT RightHandRing2
											{
												OFFSET -3.449306 0.000000 0.000000
												CHANNELS 3 Xrotation Yrotation Zrotation
												JOINT RightHandRing3
												{
													OFFSET -3.362106 0.000000 0.000000
													CHANNELS 3 Xrotation Yrotation Zrotation
													JOINT RightHandRing4
													{
														OFFSET -2.076401 0.000000 0.000000
														CHANNELS 3 Xrotation Yrotation Zrotation
														End Site
														{
															OFFSET 0.000000 0.000000 0.000000
														}
													}
												}
											}
										}
									}
								}
							}
						}
					}
				}
			}
		}
	}
	JOINT LeftUpLeg
	{
		OFFSET 10.205400 -3.823500 0.155100
		CHANNELS 3 Xrotation Yrotation Zrotation
		JOINT LeftLeg
		{
			OFFSET 0.708757 -12.982077 0.567790
			CHANNELS 3 Xrotation Yrotation Zrotation
			JOINT LeftFoot
			{
				OFFSET -0.708756 -10.717838 -2.184338
				CHANNELS 3 Xrotation Yrotation Zrotation
				JOINT LeftToeBase
				{
					OFFSET 0.108149 -7.191104 7.560241
					CHANNELS 3 Xrotation Yrotation Zrotation
					JOINT LeftToe_End
					{
						OFFSET 0.070230 0.081724 4.490308
						CHANNELS 3 Xrotation Yrotation Zrotation
						End Site
						{
							OFFSET 0.000000 0.000000 0.000000
						}
					}
				}
			}
		}
	}
	JOINT RightUpLeg
	{
		OFFSET -10.205400 -3.823500 0.005500
		CHANNELS 3 Xrotation Yrotation Zrotation
		JOINT RightLeg
		{
			OFFSET -0.708756 -12.982134 0.610632
			CHANNELS 3 Xrotation Yrotation Zrotation
			JOINT RightFoot
			{
				OFFSET 0.708754 -10.717769 -1.945823
				CHANNELS 3 Xrotation Yrotation Zrotation
				JOINT RightToeBase
				{
					OFFSET -0.108140 -7.191069 7.372968
					CHANNELS 3 Xrotation Yrotation Zrotation
					JOINT RightToe_End
					{
						OFFSET -0.070227 0.081735 4.479403
						CHANNELS 3 Xrotation Yrotation Zrotation
						End Site
						{
							OFFSET 0.000000 0.000000 0.000000
						}
					}
				}
			}
		}
	}
}
MOTION
Frames: 4
Frame Time: 0.016667
-3.017752 31.379477 17.197653 29.409562 5.284734 -18.848932 5.937112 13.021600 -7.295357 11.648230 11.205361 -7.545694 0.000000 0.000000 0.000000 11.698387 11.155145 -7.567845 -9.883399 -7.149091 7.463520 -30.256328 -33.917664 18.385672 0.000001 0.000001 -0.000000 -0.266297 3.848957 2.890109 0.000000 0.000000 0.000000 28.180083 -44.869838 -18.300128 0.000007 -24.379737 -0.000010 -6.282338 38.817013 -1.221404 -3.708765 -5.344616 -9.285610 10.685369 16.536450 0.020118 2.736446 5.880159 2.697162 -0.000004 -0.000003 -0.000002 0.013970 0.439248 -3.642313 0.025877 0.597749 -4.959522 0.006486 0.299150 -2.479706 0.000000 -0.000000 -0.000000 0.013840 0.437318 -3.626329 0.026050 0.599674 -4.975523 0.006494 0.299160 -2.479707 0.000002 0.000000 -0.000000 0.013970 0.439241 -3.642311 0.025885 0.597749 -4.959523 0.006481 0.299153 -2.479700 -0.000001 0.000000 -0.000000 4.952156 16.802282 -7.381356 0.000000 0.000000 0.000000 -6.598525 60.118198 21.651611 0.000011 37.609132 -0.000016 -29.432573 -31.794981 -16.154791 31.276474 -0.747340 -0.159481 -3.876763 -9.680804 -4.069543 -5.448493 -0.536445 -3.405167 0.000003 -0.000003 -0.000001 0.578533 -2.781508 23.494932 0.464457 -2.503095 21.020981 0.117043 -1.272898 10.505435 -0.000001 -0.000002 -0.000000 0.578529 -2.781507 23.494942 0.464469 -2.503100 21.020985 0.117041 -1.272908 10.505435 -0.000002 -0.000002 0.000000 0.578537 -2.781501 23.494932 0.464466 -2.503096 21.020986 0.117041 -1.272906 10.505440 0.000000 -0.000000 0.000001 -81.940775 -3.909689 11.616217 28.085852 10.752885 -4.743058 22.351630 -0.034395 12.025779 -0.206838 -0.000010 0.000002 -0.000000 -0.000002 -0.000000 14.474518 -24.827130 -17.005402 70.459986 4.179770 -0.911713 15.578603 0.681961 9.649503 0.000012 0.000005 0.000001 0.000001 0.000001 0.000001 
-3.156085 31.290234 17.474815 28.613382 5.988851 -18.732132 5.947044 12.142436 -7.588963 11.676782 10.962424 -7.565070 0.000000 0.000000 0.000000 11.760141 10.875360 -7.587000 -9.995546 -7.064445 7.301290 -30.252564 -33.572989 18.432240 0.000000 0.000000 -0.000000 -0.255795 3.725910 3.215432 0.000000 0.000000 0.000000 28.574286 -46.646026 -14.108362 0.000002 -23.223232 0.000010 -8.175398 37.907430 -1.748948 -3.708760 -5.344619 -9.285608 10.685367 16.536448 0.020118 2.736443 5.880161 2.697161 -0.000000 -0.000002 -0.000000 0.013971 0.439247 -3.642311 0.025877 0.597755 -4.959524 0.006488 0.299150 -2.479705 0.000002 -0.000000 -0.000000 0.013840 0.437320 -3.626328 0.026050 0.599675 -4.975524 0.006496 0.299159 -2.479706 0.000000 0.000000 -0.000000 0.013971 0.439246 -3.642311 0.025883 0.597751 -4.959525 0.006482 0.299153 -2.479700 -0.000001 0.000000 -0.000000 4.755322 16.291728 -6.875285 0.000000 0.000000 0.000000 -6.385741 57.667151 19.002377 0.000010 35.965611 0.000029 -31.597210 -30.685417 -17.384536 31.221341 -0.795000 -0.187892 -3.869659 -9.704028 -4.071602 -5.444436 -0.547813 -3.407010 -0.000001 -0.000006 -0.000001 0.577754 -2.779703 23.478787 0.463238 -2.499880 20.992745 0.116714 -1.271208 10.491319 0.000000 -0.000001 0.000002 0.577758 -2.779701 23.478797 0.463236 -2.499879 20.992740 0.116705 -1.271206 10.491325 -0.000002 -0.000003 0.000001 0.577757 -2.779697 23.478786 0.463235 -2.499886 20.992737 0.116715 -1.271208 10.491320 0.000001 -0.000000 -0.000001 -81.957940 -3.635474 11.980196 30.735933 9.717731 -5.153259 20.681837 -0.083304 11.641718 -0.212788 -0.000001 0.000003 0.000000 -0.000001 -0.000000 11.963747 -24.614347 -16.656890 69.503185 4.320434 -1.211047 16.109105 0.619946 8.101249 0.000002 -0.000001 0.000001 -0.000002 0.000000 0.000001 
-3.291372 31.223015 17.753620 27.807090 6.663886 -18.632980 5.977068 11.257184 -7.901879 11.743715 10.656885 -7.606247 0.000000 0.000000 0.000000 11.859999 10.534740 -7.618954 -10.124074 -6.973860 7.156030 -30.258769 -33.172473 18.493004 0.000000 -0.000000 0.000000 -0.246498 3.605301 3.561399 0.000000 0.000000 0.000000 28.114734 -48.438882 -10.572335 0.000012 -21.961905 0.000004 -10.198567 36.602649 -1.666838 -3.708762 -5.344611 -9.285605 10.685377 16.536453 0.020122 2.736449 5.880157 2.697160 -0.000002 0.000001 0.000002 0.013969 0.439250 -3.642311 0.025874 0.597754 -4.959523 0.006487 0.299148 -2.479705 -0.000001 0.000001 -0.000000 0.013837 0.437325 -3.626328 0.026051 0.599676 -4.975524 0.006492 0.299155 -2.479707 -0.000000 0.000000 -0.000001 0.013968 0.439250 -3.642311 0.025885 0.597749 -4.959522 0.006482 0.299149 -2.479700 -0.000000 0.000000 -0.000001 4.570571 15.669540 -6.602611 0.000000 0.000000 0.000000 -6.422805 55.485865 16.577477 -0.000005 34.357593 0.000017 -33.438072 -29.057435 -18.368955 31.163944 -0.844521 -0.217475 -3.862226 -9.728364 -4.073796 -5.440193 -0.559747 -3.408890 -0.000000 0.000000 -0.000000 0.576938 -2.777832 23.461978 0.461891 -2.496413 20.962139 0.116385 -1.269385 10.476029 0.000001 -0.000001 0.000001 0.576943 -2.777836 23.461990 0.461895 -2.496411 20.962134 0.116380 -1.269377 10.476046 0.000001 0.000002 -0.000000 0.576941 -2.777838 23.461992 0.461906 -2.496411 20.962131 0.116373 -1.269363 10.476040 0.000001 0.000003 0.000001 -81.839047 -3.260878 12.371925 33.054407 8.568180 -5.408697 19.150587 -0.111087 11.255200 -0.218918 0.000001 -0.000005 -0.000000 -0.000001 0.000000 9.557491 -24.358710 -16.305159 68.411673 4.387352 -1.629361 16.589887 0.600414 7.219409 0.000012 0.000006 -0.000016 -0.000002 0.000002 -0.000000 
-3.415753 31.175922 18.044621 26.983542 7.325039 -18.533199 6.029198 10.341809 -8.228195 11.857640 10.258346 -7.663915 0.000000 0.000000 0.000000 12.006338 10.104662 -7.655099 -10.259048 -6.869435 7.028378 -30.230704 -32.681523 18.611094 -0.000001 -0.000000 -0.000000 -0.235974 3.479661 3.929635 0.000000 0.000000 0.000000 26.629948 -50.227661 -7.789995 0.000000 -20.582012 0.000011 -12.116056 35.063845 -1.214190 -3.708763 -5.344620 -9.285606 10.685370 16.536445 0.020117 2.736446 5.880152 2.697164 -0.000004 -0.000003 -0.000000 0.013969 0.439249 -3.642313 0.025875 0.597750 -4.959522 0.006488 0.299155 -2.479706 0.000001 0.000003 -0.000000 0.013838 0.437317 -3.626326 0.026051 0.599683 -4.975523 0.006492 0.299158 -2.479709 0.000001 -0.000001 0.000001 0.013967 0.439241 -3.642310 0.025882 0.597751 -4.959524 0.006484 0.299150 -2.479701 -0.000001 0.000002 -0.000000 4.407072 14.991000 -6.564001 0.000000 0.000000 0.000000 -6.689356 53.586010 14.333825 -0.000007 32.841469 0.000005 -34.852007 -27.174389 -18.930489 31.104415 -0.895781 -0.248172 -3.854490 -9.753770 -4.076069 -5.435739 -0.572171 -3.410888 -0.000000 -0.000001 0.000002 0.576085 -2.775873 23.444537 0.460474 -2.492698 20.929346 0.116013 -1.267413 10.459676 0.000000 0.000002 0.000000 0.576085 -2.775868 23.444544 0.460482 -2.492707 20.929346 0.116011 -1.267408 10.459671 0.000000 -0.000001 0.000000 0.576088 -2.775873 23.444541 0.460484 -2.492698 20.929351 0.116004 -1.267413 10.459671 0.000002 0.000002 -0.000004 -81.586596 -2.813980 12.758726 35.165304 7.358745 -5.518401 17.661737 -0.127079 10.855561 -0.224743 0.000011 -0.000000 0.000000 -0.000003 0.000000 7.192804 -24.046948 -15.981318 67.208911 4.371436 -2.137584 17.007726 0.604893 6.701721 -0.000010 -0.000010 0.000009 -0.000003 0.000002 -0.000000 
